# xmcd
#
# Track frame offsets:
#	150
#	22370
#	46933
#	60746
#	61782
#	78593
#	82001
#	105486
#	111792
#	136292
#	158595
#	163083
#	184989
#	186475
#	203578
#	212820
#	233376
#	248122
#
# Disc length: 3659 seconds
#
# Revision: 1
# Processed by: cddbd v1.5.2PL0 Copyright (c) Steve Scherf et al.
# Submitted via: audiograbber 1.83.01
#
DISCID=f50e4912
DTITLE=Ratzke, Sven and McFadden, Claron - Groschenblues
DYEAR=2012
DGENRE=
TTITLE0=Mack The Knife
TTITLE1=Zuhälterballade
TTITLE2=Havana Song
TTITLE3=Erst kommt das ficken, dann das Bad
TTITLE4=Salomon Song
TTITLE5=They Burnt Down The Cabaret
TTITLE6=Surabaya Johnny
TTITLE7=Das Lied der harten Nuss
TTITLE8=Was die Herren Matrosen sagen (Matrosen Song)
TTITLE9=Youkali
TTITLE10=She Went With Every Man'
TTITLE11=Seeräuberjenny
TTITLE12=He Johnny
TTITLE13=Nanna's Lied
TTITLE14=Der Song von Mandelay
TTITLE15=Alabama Song
TTITLE16=Liebeslied
TTITLE17=I'm A Stranger Here Myself
EXTD=
EXTT0=
EXTT1=
EXTT2=
EXTT3=
EXTT4=
EXTT5=
EXTT6=
EXTT7=
EXTT8=
EXTT9=
EXTT10=
EXTT11=
EXTT12=
EXTT13=
EXTT14=
EXTT15=
EXTT16=
EXTT17=
PLAYORDER=
